<svg width="166" height="65" viewBox="0 0 166 65" fill="none" xmlns="http://www.w3.org/2000/svg">
<path d="M60.0156 7.85127C59.784 7.74153 59.5523 7.65375 59.3439 7.54401C57.7688 6.86364 56.1474 6.27106 54.5259 5.70044C54.0858 5.56875 53.6689 5.43707 53.2288 5.28344C51.7695 4.82255 50.3103 4.40554 48.8047 4.05439C48.2256 3.9227 47.6233 3.79102 47.0211 3.63739C45.6776 3.33013 44.2879 3.08871 42.9212 2.91313C42.2263 2.8034 41.5083 2.71561 40.8366 2.64977C39.5394 2.49614 38.2191 2.3864 36.8988 2.29861C36.1576 2.25471 35.4164 2.21082 34.6288 2.18887C33.9571 2.16692 33.3085 2.16693 32.6137 2.16693C31.9883 2.16693 31.386 2.16692 30.7374 2.18887C29.9962 2.21082 29.2087 2.23277 28.4675 2.29861C27.1472 2.3864 25.8269 2.49614 24.5297 2.64977C23.8117 2.73756 23.1168 2.8034 22.4451 2.91313C21.0784 3.13261 19.6886 3.37403 18.3452 3.63739C17.7429 3.76908 17.1639 3.90076 16.5616 4.05439C15.0792 4.40554 13.5967 4.82255 12.1375 5.28344C11.6974 5.41512 11.2804 5.5468 10.8172 5.70044C9.17259 6.24912 7.57434 6.8417 5.99925 7.52206C5.76762 7.6318 5.53599 7.71959 5.30436 7.82932C3.49763 8.61942 1.71407 9.49731 0 10.4191C0 12.3066 0.0926609 14.1282 0.254803 15.9498C0.277966 16.2571 0.30112 16.5204 0.347447 16.8277C0.509588 18.4299 0.741228 20.0101 1.06551 21.5683C1.15816 22.0512 1.27398 22.5121 1.34347 23.0168C1.62143 24.3995 2.0152 25.7602 2.38581 27.099C2.54795 27.6916 2.75642 28.3281 2.96489 28.9207C3.35866 30.1497 3.79875 31.3349 4.28517 32.52C4.56313 33.2004 4.86425 33.8807 5.14221 34.5391C6.69414 33.2662 8.33872 32.0811 10.0528 31.0276C11.7205 29.9961 13.4809 29.0962 15.3108 28.3061C17.0944 27.516 18.9474 26.8576 20.87 26.3528C22.2366 25.9797 23.6727 25.6505 25.1088 25.4091C25.6647 25.3213 26.1975 25.2555 26.7534 25.1677C28.5601 24.9262 30.3668 24.7946 32.243 24.7946C32.3589 24.7946 32.4747 24.7946 32.5905 24.7946C32.7295 24.7946 32.9148 24.7946 33.0537 24.7946C34.93 24.8165 36.7598 24.9482 38.5434 25.2116C39.0993 25.2994 39.6552 25.3652 40.2112 25.4749C41.6473 25.7163 43.0602 26.0456 44.4268 26.4187C46.3494 26.9673 48.1793 27.6258 49.986 28.3939C51.8159 29.184 53.5762 30.1058 55.244 31.1373C56.9581 32.1908 58.6027 33.3759 60.1314 34.6708C60.4557 33.9905 60.7337 33.2882 61.0116 32.5858C61.4749 31.4446 61.8918 30.2375 62.3087 29.0743C60.6642 27.8452 58.9733 26.704 57.1665 25.6724C55.4525 24.6629 53.6457 23.785 51.7695 23.0168C49.9628 22.2487 48.0866 21.6122 46.1641 21.0635C45.4692 20.866 44.7511 20.6904 44.0331 20.5148C42.8286 20.2515 41.6009 19.9881 40.3501 19.8125C39.2846 19.6589 38.196 19.5053 37.1073 19.3955C36.2271 19.3077 35.3006 19.2639 34.374 19.2419C33.7718 19.22 33.1696 19.22 32.5442 19.22C31.9651 19.22 31.4323 19.22 30.8533 19.2419C29.9267 19.2639 29.0234 19.3297 28.12 19.3955C27.0313 19.4833 25.9427 19.615 24.8772 19.7686C23.6495 19.9662 22.445 20.2076 21.2406 20.471C20.5225 20.6246 19.8045 20.8221 19.0864 21.0196C17.1639 21.5683 15.2876 22.2267 13.4809 22.951C11.6047 23.7191 9.798 24.619 8.08393 25.5847C8.08393 25.5627 8.06077 25.4969 8.06077 25.4749C7.50486 23.6314 7.08792 21.7439 6.74047 19.8125C6.74047 19.7686 6.7173 19.7247 6.7173 19.6808C6.36985 17.7495 6.13822 15.7962 6.02241 13.799C7.89862 12.8991 9.82116 12.109 11.79 11.4067C11.8132 11.4067 11.8132 11.3848 11.8364 11.3848C13.7589 10.7044 15.7509 10.1338 17.7429 9.65094H17.7661C19.6886 9.19005 21.6343 8.81695 23.6264 8.53164C23.6495 8.53164 23.719 8.53164 23.7654 8.50969C25.6647 8.24632 27.5873 8.0488 29.533 7.96101C29.5793 7.96101 29.6719 7.96101 29.7414 7.96101C30.6679 7.93906 31.6176 7.91711 32.5442 7.91711C33.517 7.91711 34.5362 7.93906 35.4627 7.96101C35.509 7.96101 35.6017 7.96101 35.6712 7.96101C37.6169 8.07074 39.5394 8.22437 41.4388 8.50969C41.4851 8.50969 41.5314 8.50969 41.5778 8.53164C43.5698 8.8389 45.5155 9.212 47.438 9.67289H47.4612C49.4764 10.1557 51.4453 10.7703 53.3678 11.4506C53.391 11.4506 53.4141 11.4506 53.4141 11.4726C55.4061 12.1749 57.3287 12.965 59.1817 13.8648C61.1274 14.7866 63.0268 15.8181 64.8567 16.9594C64.8798 16.6521 64.903 16.3229 64.9493 16.0376C65.1115 14.2379 65.2041 12.4163 65.2041 10.5727C63.6522 9.54121 61.8687 8.68527 60.0156 7.85127Z" fill="white"/>
<path d="M48.6484 33.5464C46.8281 32.7328 44.9377 32.0547 42.9773 31.5575C41.297 31.1054 39.5233 30.7664 37.7729 30.5856C37.4229 30.563 37.0728 30.4952 36.7694 30.4726C35.7192 30.3822 34.669 30.337 33.5954 30.337C32.5452 30.337 31.5417 30.3596 30.5382 30.45C30.1881 30.4726 29.8614 30.4952 29.5347 30.563C27.7376 30.7664 26.0106 31.0602 24.307 31.5123C22.3466 32.0095 20.4329 32.6875 18.6358 33.5012C16.8155 34.3149 15.0885 35.2641 13.4315 36.349C11.7512 37.4791 10.1642 38.6996 8.69388 40.0783C9.27733 41.1405 9.90746 42.1802 10.5843 43.2199C11.0277 43.8979 11.4478 44.5534 11.9145 45.2088C12.638 46.2485 13.3615 47.243 14.1316 48.2374C14.5984 48.8251 15.0651 49.4127 15.5552 49.9778C16.4187 51.0174 17.3289 51.9893 18.2391 52.9838C18.6825 53.4584 19.1259 53.9104 19.5927 54.3625C20.8296 52.8482 22.3466 51.5373 24.0502 50.475C25.8706 49.3449 27.9243 48.5313 30.1181 48.1018C31.285 47.8758 32.4519 47.7628 33.7121 47.7628C34.9957 47.7628 36.2093 47.8984 37.3762 48.1244C39.57 48.5765 41.6004 49.3901 43.4207 50.5428C41.9971 51.9441 40.5035 53.255 38.9398 54.5207C38.8932 54.5659 38.8231 54.6111 38.7765 54.6563C38.6131 54.7919 38.4264 54.9275 38.263 55.0405C37.913 55.3117 37.5629 55.5829 37.1895 55.8542C37.1662 55.8768 37.1195 55.8994 37.0961 55.922C36.7694 56.1706 36.4427 56.3966 36.0926 56.6452C35.9759 56.7356 35.8359 56.826 35.7192 56.8938C35.4625 57.0746 35.2058 57.2555 34.949 57.4137C34.5523 57.6849 34.1556 57.9335 33.7588 58.2047C32.1952 57.1877 30.6549 56.1028 29.1846 54.9501C27.0142 55.4925 25.1816 56.6 23.4313 57.8431C23.5946 57.9787 23.5835 57.9787 23.7702 58.1143C23.8402 58.1821 23.9102 58.2499 24.0269 58.3403C25.3338 59.4026 26.6874 60.4423 28.0877 61.4141C28.3211 61.5724 28.5545 61.7306 28.7878 61.8888C30.3982 63.0189 32.0785 64.0359 33.8288 65.0078C34.669 64.5332 35.5092 64.0359 36.326 63.5387C37.1428 63.0415 37.9597 62.499 38.7531 61.9566C39.0099 61.7984 39.2666 61.595 39.5233 61.4141C40.8769 60.4649 42.2071 59.4478 43.4907 58.3855C43.7008 58.2047 43.9108 58.0239 44.1209 57.8431C44.3076 57.6849 44.4943 57.5267 44.6576 57.3685C45.7545 56.4192 46.8281 55.4247 47.8783 54.4077C48.3684 53.933 48.8351 53.4584 49.3019 52.9612C50.1887 52.0119 51.0756 51.0174 51.9157 50.0456C52.4058 49.4579 52.8959 48.8477 53.386 48.2148C33.2921 35.3545 20.0595 46.0677 20.0595 46.0677C20.0128 46.0225 19.9661 45.9547 19.9194 45.9095C18.7292 44.463 17.609 42.9487 16.5354 41.3892C18.1458 40.2591 19.9194 39.3098 21.7631 38.5639C23.6768 37.7503 25.6606 37.1401 27.7143 36.7332C29.3246 36.4168 30.9816 36.236 32.6619 36.1682C33.012 36.1682 33.3621 36.1456 33.7121 36.1456C34.1089 36.1456 34.4823 36.1456 34.879 36.1682C36.5594 36.2134 38.2164 36.4168 39.8033 36.7558C41.8804 37.1853 43.8641 37.7955 45.7545 38.6092C47.5982 39.4002 49.3486 40.3495 50.9589 41.457C52.6159 42.587 54.1328 43.8753 55.5098 45.2992C55.9765 44.6212 56.4433 43.9205 56.8634 43.2199C57.4935 42.2028 58.1003 41.2083 58.6837 40.1687C57.1434 38.79 55.5798 37.5243 53.8994 36.4168C52.2191 35.3093 50.4688 34.3601 48.6484 33.5464Z" fill="white"/>
<path d="M89.8043 28.7814V24.4593H97.1767V30.5987L92.3264 35.5101H76.5146V4.88695L81.7529 0H97.1767V13.4084H89.8043V6.75332H83.887V28.7814H89.8043Z" fill="white"/>
<path d="M113.789 35.5101L109.424 22.6666H107.483V35.5101H100.135V5.00973L105.471 0H120.482V22.5683H116.505L121.161 35.5101H113.789ZM113.134 16.0115V6.75332H107.483V16.0115H113.134Z" fill="white"/>
<path d="M123.902 0H140.926V6.75332H131.177V13.6049H140.441V20.2354H131.274V28.7814H141.169V35.5101H123.902V0Z" fill="white"/>
<path d="M143.885 0H158.969L164.62 5.62367V30.5987L159.697 35.5101H143.885V0ZM157.247 28.7814V6.75332H151.233V28.7814H157.247Z" fill="white"/>
<path d="M88.305 65.0078H76.0715V57.9958H80.7341V60.7382H83.627V57.1543L76.2254 51.4979V42.4757H88.1665V49.1761H83.9348V46.7764H80.888V49.7215L88.305 55.3623V65.0078Z" fill="white"/>
<path d="M94.9834 51.7316H98.9843V42.4757H103.647V65.0078H98.9843V56.0012H94.9834V65.0078H90.3208V42.4757H94.9834V51.7316Z" fill="white"/>
<path d="M110.31 49.3943V65.0078H105.647V49.3943H110.31ZM110.31 42.4757V48.023H105.647V42.4757H110.31Z" fill="white"/>
<path d="M112.049 42.4757H122.851V46.7609H116.665V51.1083H122.543V55.3156H116.727V60.7382H123.005V65.0078H112.049V42.4757Z" fill="white"/>
<path d="M124.729 65.0078V42.4757H129.391V60.7382H135.916V65.0078H124.729Z" fill="white"/>
<path d="M137.932 42.4757H147.503L151.088 46.0441V61.8913L147.965 65.0078H137.932V42.4757ZM146.41 60.7382V46.7609H142.594V60.7382H146.41Z" fill="white"/>
<path d="M165.184 65.0078H152.95V57.9958H157.613V60.7382H160.506V57.1543L153.104 51.4979V42.4757H165.045V49.1761H160.814V46.7764H157.767V49.7215L165.184 55.3623V65.0078Z" fill="white"/>
</svg>
