<svg width="219" height="70" viewBox="0 0 219 70" fill="none" xmlns="http://www.w3.org/2000/svg">
<g filter="url(#filter0_b_224_533)">
<rect y="0.000244141" width="68.7031" height="69.5619" rx="25.7639" fill="url(#paint0_linear_224_533)" fill-opacity="0.1"/>
<rect x="0.644097" y="0.644341" width="67.4149" height="68.2737" rx="25.1198" stroke="url(#paint1_linear_224_533)" stroke-width="1.28819"/>
</g>
<path d="M25.0342 52.034C22.2662 50.0917 20.1158 47.282 18.9765 44.1212C18.8177 43.6821 18.335 43.4553 17.8974 43.6117C17.4583 43.7705 17.2315 44.2532 17.3879 44.6909C18.6411 48.1773 21.0148 51.275 24.0621 53.4142C24.2036 53.5121 24.3655 53.5634 24.5252 53.5679C24.7969 53.5754 25.0677 53.4493 25.2358 53.2087C25.5043 52.8281 25.4125 52.301 25.0304 52.035L25.0342 52.034Z" fill="url(#paint2_linear_224_533)"/>
<path d="M39.9074 54.0239C38.0121 54.7087 36.0263 55.0329 34.0009 54.987C32.2135 54.9452 30.4611 54.612 28.7933 54.003C28.3571 53.842 27.8699 54.0672 27.7114 54.5049C27.5504 54.9412 27.7756 55.4283 28.2133 55.5868C30.0572 56.2618 31.9915 56.6286 33.9613 56.6751C36.1941 56.7272 38.3897 56.3715 40.4796 55.6139C40.9187 55.4551 41.1454 54.9724 40.9866 54.5333C40.8278 54.0942 40.3437 53.8699 39.906 54.0263L39.9074 54.0239Z" fill="url(#paint3_linear_224_533)"/>
<path d="M51.1751 45.2313C51.3472 44.7982 51.1335 44.3079 50.7005 44.1358C50.2674 43.9637 49.7772 44.1774 49.605 44.6105C48.4517 47.5191 46.4931 50.0343 43.9383 51.8838C43.5605 52.1559 43.4758 52.6849 43.7493 53.0603C43.9098 53.2828 44.1582 53.4035 44.4149 53.4089C44.5934 53.4146 44.7729 53.3623 44.9297 53.2483C47.7451 51.2116 49.9057 48.4365 51.1765 45.2288L51.1751 45.2313Z" fill="url(#paint4_linear_224_533)"/>
<path d="M48.8426 22.9374C50.2719 25.4834 50.9918 28.3696 50.9237 31.288L50.7425 39.0077C50.7251 39.7801 50.6494 40.5578 50.5257 41.3175C50.4491 41.7765 50.7593 42.2121 51.2182 42.2887C51.2593 42.2962 51.2994 42.2999 51.3385 42.2997C51.751 42.3106 52.1202 42.0141 52.1894 41.5963C52.3292 40.7581 52.4121 39.9003 52.4306 39.0473L52.6118 31.3276C52.6878 28.1087 51.8915 24.9218 50.3155 22.1126C50.0854 21.707 49.5751 21.5617 49.1671 21.7905C48.763 22.0181 48.6149 22.5333 48.845 22.9388L48.8426 22.9374Z" fill="url(#paint5_linear_224_533)"/>
<path d="M36.2334 14.6251C40.5677 15.0692 44.4862 17.1951 47.2626 20.613C47.4232 20.8128 47.6599 20.9202 47.8977 20.9244C48.0902 20.9284 48.2879 20.8672 48.4482 20.7358C48.8097 20.4413 48.8655 19.9118 48.571 19.5502C45.5094 15.7827 41.1884 13.4373 36.4058 12.9487C35.9425 12.902 35.5281 13.2374 35.48 13.7031C35.4333 14.1664 35.7687 14.5808 36.2344 14.6289L36.2334 14.6251Z" fill="url(#paint6_linear_224_533)"/>
<path d="M25.3761 20.1483C25.0135 20.4389 24.9539 20.9695 25.2431 21.3345C25.4047 21.5382 25.6414 21.6456 25.8817 21.6512C26.0742 21.6552 26.268 21.595 26.4269 21.466C28.3627 19.9182 30.6778 18.9562 33.1188 18.687C33.5828 18.6368 33.9153 18.2183 33.8637 17.7567C33.8134 17.2927 33.395 16.9602 32.9334 17.0118C30.1742 17.3148 27.5607 18.4 25.3722 20.1493L25.3761 20.1483Z" fill="url(#paint7_linear_224_533)"/>
<path d="M34.9192 51.777C34.9307 51.3129 34.561 50.9241 34.0955 50.9151C31.5771 50.8571 29.1453 50.07 27.0606 48.6424C26.6771 48.3788 26.1521 48.4782 25.8885 48.8617C25.6249 49.2452 25.723 49.7726 26.1079 50.0338C28.4586 51.6475 31.2079 52.5368 34.0559 52.6032C34.52 52.6147 34.9087 52.245 34.9178 51.7794L34.9192 51.777Z" fill="url(#paint8_linear_224_533)"/>
<path d="M37.5733 51.4199C37.6816 51.7778 38.0052 52.0101 38.3599 52.0201C38.4467 52.0215 38.5343 52.0104 38.624 51.9843C40.4675 51.4286 42.1644 50.5252 43.6701 49.3005C44.0317 49.006 44.085 48.4751 43.7929 48.1149C43.4985 47.7534 42.9676 47.7001 42.6074 47.9921C41.2738 49.076 39.7696 49.8763 38.1377 50.3692C37.6925 50.5049 37.44 50.976 37.5733 51.4199Z" fill="url(#paint9_linear_224_533)"/>
<path d="M41.0549 39.4176C40.6564 39.1745 40.1386 39.3009 39.8955 39.6994C39.4444 40.4357 38.8585 41.0682 38.1567 41.5753C37.7788 41.8474 37.6942 42.3764 37.9662 42.7542C38.1267 42.9767 38.3752 43.0975 38.6304 43.1052C38.8065 43.1095 38.9885 43.0587 39.1438 42.9471C40.03 42.3062 40.768 41.5116 41.3378 40.5809C41.5809 40.1823 41.4546 39.6645 41.056 39.4214L41.0549 39.4176Z" fill="url(#paint10_linear_224_533)"/>
<path d="M21.2924 39.452C21.3116 39.3851 21.3258 39.3154 21.3251 39.2436L21.3293 39.0902L21.3499 38.284L21.5134 31.3429C21.5725 28.8674 22.3337 26.4694 23.7169 24.4109C23.9757 24.0246 23.8723 23.5007 23.4874 23.2395C23.1011 22.9808 22.5786 23.0817 22.316 23.469C20.7517 25.7962 19.8901 28.5032 19.8253 31.3033L19.6618 38.2444L19.6412 39.0506C19.6304 39.5021 19.255 39.86 18.8034 39.8493C18.4122 39.8409 18.0929 39.556 18.0192 39.1888C18.0193 39.1661 18.0257 39.1438 18.0234 39.1197C18.0132 38.8281 18.012 38.5321 18.0207 38.2416L18.0295 37.9058L18.2019 30.5219C18.4049 22.0388 25.1945 15.0307 33.6634 14.5666C34.1298 14.5404 34.4848 14.1447 34.4586 13.6784C34.4325 13.212 34.033 12.858 33.5704 12.8831C24.227 13.3943 16.7378 21.125 16.5176 30.4812L16.3452 37.8652L16.3364 38.201L16.319 38.9734C16.2878 40.3546 17.384 41.5037 18.7638 41.5374C20.023 41.5664 21.0851 40.6602 21.2886 39.453L21.2924 39.452Z" fill="url(#paint11_linear_224_533)"/>
<path d="M47.1387 45.2384C48.3789 43.1071 49.0669 40.6896 49.1243 38.2228L49.2703 31.9924C49.3489 28.5834 48.2252 25.227 46.099 22.5384C45.386 21.6366 44.5698 20.8179 43.669 20.1063C43.3034 19.8173 42.772 19.8774 42.483 20.2429C42.194 20.6085 42.2555 21.1375 42.6197 21.4289C43.4169 22.0613 44.1428 22.7889 44.774 23.5851C46.6568 25.9642 47.6525 28.9351 47.5822 31.9528L47.4362 38.1832C47.3833 40.4285 46.7409 42.6322 45.5835 44.558C45.4519 44.758 45.2576 44.9088 45.0244 44.9754C44.7628 45.0517 44.4889 45.0201 44.2523 44.89C44.0133 44.7585 43.8423 44.543 43.7661 44.2814C43.6919 44.0275 43.7206 43.7584 43.8455 43.5253C45.0832 41.7076 45.7682 39.5934 45.818 37.3983L45.9298 32.6611C46.0778 26.3766 41.0837 21.1428 34.7992 20.9948C28.5148 20.8469 23.2809 25.841 23.133 32.1254L23.0212 36.8626C22.8732 43.147 27.8673 48.3809 34.1518 48.5289C34.1518 48.5289 34.1518 48.5289 34.1542 48.5303C34.1542 48.5303 34.1542 48.5303 34.1566 48.5317C35.7429 48.5677 37.0643 47.308 37.1004 45.7217C37.1364 44.1354 35.8766 42.814 34.2879 42.7766C34.2879 42.7766 34.2879 42.7766 34.2855 42.7752C34.2855 42.7752 34.2855 42.7752 34.2831 42.7738C30.7597 42.6908 27.9629 39.7579 28.0445 36.237L28.1196 32.9916C28.2026 29.4682 31.1355 26.6714 34.6564 26.753C38.1773 26.8346 40.9765 29.7688 40.895 33.2898L40.8711 34.3376L40.8518 35.1414C40.8411 35.593 40.4657 35.9509 40.0141 35.9401C39.5625 35.9294 39.2046 35.554 39.2153 35.1024L39.2416 33.9942C39.3031 31.374 37.2221 29.192 34.6019 29.1305C31.9817 29.069 29.7997 31.15 29.7382 33.7702L29.6959 35.5249C29.6343 38.1451 31.7153 40.327 34.3355 40.3886C34.7997 40.4001 35.1884 40.0304 35.1975 39.5648C35.2089 39.1007 34.8393 38.712 34.3737 38.7029C32.6832 38.6619 31.3415 37.2575 31.3801 35.5655L31.4225 33.8108C31.4635 32.1203 32.8679 30.7786 34.5598 30.8172C36.2504 30.8582 37.592 32.2627 37.5535 33.9546L37.5272 35.0628C37.496 36.444 38.5922 37.5931 39.972 37.6268C41.3533 37.6581 42.5024 36.5619 42.5361 35.182L42.5568 34.3758L42.5806 33.328C42.6841 28.8749 39.1466 25.167 34.6936 25.0635C30.2406 24.96 26.5326 28.4975 26.4291 32.9505L26.354 36.196C26.2504 40.649 29.788 44.3569 34.241 44.4604C34.241 44.4604 34.241 44.4604 34.2435 44.4619C34.2435 44.4619 34.2435 44.4619 34.2459 44.4633C34.9025 44.4787 35.4239 45.0265 35.4084 45.6831C35.3929 46.3397 34.8452 46.8611 34.1886 46.8456C34.1886 46.8456 34.1886 46.8456 34.1861 46.8442C34.1837 46.8428 34.1861 46.8442 34.1837 46.8428C28.8275 46.7178 24.5742 42.259 24.6992 36.9028L24.8109 32.1656C24.9359 26.8095 29.3947 22.5561 34.7509 22.6811C40.1071 22.8061 44.3604 27.2649 44.2354 32.6211L44.1237 37.3583C44.0779 39.2539 43.4846 41.0801 42.4021 42.6401C42.3993 42.6449 42.3965 42.6498 42.3937 42.6547C42.3852 42.6693 42.3758 42.6801 42.3687 42.6922C42.3547 42.7166 42.3455 42.7437 42.33 42.7705C42.3258 42.7778 42.3202 42.7876 42.316 42.7949C42.0137 43.4028 41.9472 44.0916 42.1395 44.7481C42.3398 45.4416 42.8003 46.016 43.4307 46.3637C43.8172 46.5771 44.2401 46.6881 44.669 46.6987C44.9421 46.7038 45.2188 46.6688 45.488 46.5905C46.1047 46.4108 46.6239 46.0288 46.9768 45.502L46.9796 45.4971C46.9838 45.4898 46.988 45.4825 46.9922 45.4752C47.0298 45.4158 47.0698 45.3577 47.1025 45.2954C47.1152 45.2735 47.1216 45.2512 47.1304 45.2303L47.1387 45.2384Z" fill="url(#paint12_linear_224_533)"/>
<path d="M37.055 17.1383C36.5737 17.0553 36.0823 16.9955 35.5931 16.9599C35.1204 16.9239 34.7251 17.2768 34.691 17.7409C34.6592 18.2063 35.0079 18.6089 35.472 18.6431C35.906 18.6729 36.3424 18.7268 36.7675 18.8002C36.8087 18.8077 36.8512 18.8128 36.8941 18.8116C37.3042 18.8211 37.6706 18.5294 37.7436 18.1105C37.8241 17.6505 37.5164 17.2164 37.0564 17.1359L37.055 17.1383Z" fill="url(#paint13_linear_224_533)"/>
<path d="M41.1956 18.6805C40.7754 18.4318 40.3373 18.2012 39.8928 17.9939C39.4637 17.7922 38.9688 17.9815 38.7718 18.4031C38.5767 18.8268 38.7594 19.3271 39.181 19.524C39.5761 19.7062 39.9648 19.9118 40.336 20.1316C40.3718 20.1532 40.4097 20.1731 40.4503 20.1872C40.8302 20.3419 41.2764 20.1996 41.4935 19.8341C41.7324 19.4328 41.5991 18.9176 41.1978 18.6787L41.1956 18.6805Z" fill="url(#paint14_linear_224_533)"/>
<path d="M22.9806 47.1504C23.1412 47.3503 23.3754 47.4563 23.6157 47.4619C23.8082 47.4659 24.0058 47.4047 24.1661 47.2732C24.5277 46.9787 24.581 46.4478 24.289 46.0877C23.5217 45.1447 22.8903 44.1016 22.4139 42.9922C22.2293 42.5642 21.7335 42.3656 21.3055 42.5503C20.8775 42.735 20.6789 43.2307 20.8636 43.6588C21.4031 44.9118 22.1135 46.0881 22.9806 47.1504Z" fill="url(#paint15_linear_224_533)"/>
<path d="M41.1732 45.2746C40.9026 44.8943 40.3778 44.8023 39.9975 45.073C39.5766 45.369 39.1311 45.6345 38.6729 45.8602C38.2549 46.0669 38.0835 46.5718 38.2878 46.9884C38.4316 47.2792 38.7209 47.4528 39.0254 47.4597C39.1561 47.4638 39.2902 47.434 39.416 47.3735C39.956 47.1074 40.4798 46.7962 40.9717 46.4504C41.3506 46.1821 41.4439 45.6549 41.1732 45.2746Z" fill="url(#paint16_linear_224_533)"/>
<path d="M89.5458 9.28255C90.958 9.28255 92.199 9.57141 93.2688 10.1491C94.3387 10.7268 95.1625 11.5506 95.7402 12.6204C96.3393 13.6689 96.6388 14.8778 96.6388 16.2472C96.6388 17.5952 96.3286 18.7827 95.7081 19.8098C95.109 20.8368 94.2531 21.6392 93.1405 22.2169C92.0492 22.7732 90.7868 23.0514 89.3532 23.0514H84.7957C84.6887 23.0514 84.6352 23.1049 84.6352 23.2118V31.3961C84.6352 31.5031 84.5924 31.5994 84.5069 31.685C84.4427 31.7492 84.3571 31.7812 84.2501 31.7812H80.495C80.388 31.7812 80.2917 31.7492 80.2061 31.685C80.1419 31.5994 80.1098 31.5031 80.1098 31.3961V9.6677C80.1098 9.56071 80.1419 9.47513 80.2061 9.41093C80.2917 9.32535 80.388 9.28255 80.495 9.28255H89.5458ZM88.8718 19.4246C89.8561 19.4246 90.6477 19.1465 91.2468 18.5901C91.846 18.0124 92.1455 17.2635 92.1455 16.3435C92.1455 15.402 91.846 14.6424 91.2468 14.0647C90.6477 13.487 89.8561 13.1982 88.8718 13.1982H84.7957C84.6887 13.1982 84.6352 13.2517 84.6352 13.3586V19.2641C84.6352 19.3711 84.6887 19.4246 84.7957 19.4246H88.8718ZM111.103 31.7812C110.889 31.7812 110.74 31.685 110.654 31.4924L106.642 22.602C106.599 22.5165 106.535 22.4737 106.45 22.4737H103.465C103.358 22.4737 103.304 22.5271 103.304 22.6341V31.3961C103.304 31.5031 103.262 31.5994 103.176 31.685C103.112 31.7492 103.026 31.7812 102.919 31.7812H99.1641C99.0571 31.7812 98.9608 31.7492 98.8752 31.685C98.811 31.5994 98.7789 31.5031 98.7789 31.3961V9.69979C98.7789 9.59281 98.811 9.50722 98.8752 9.44303C98.9608 9.35744 99.0571 9.31465 99.1641 9.31465H108.343C109.713 9.31465 110.911 9.59281 111.938 10.1491C112.986 10.7054 113.789 11.4971 114.345 12.5242C114.923 13.5512 115.212 14.7387 115.212 16.0867C115.212 17.5417 114.848 18.7934 114.12 19.8419C113.393 20.8689 112.377 21.5964 111.071 22.0243C110.964 22.0671 110.932 22.142 110.975 22.249L115.34 31.3319C115.383 31.4175 115.404 31.4817 115.404 31.5245C115.404 31.6957 115.287 31.7812 115.051 31.7812H111.103ZM103.465 13.1982C103.358 13.1982 103.304 13.2517 103.304 13.3586V18.8469C103.304 18.9539 103.358 19.0074 103.465 19.0074H107.669C108.568 19.0074 109.295 18.7399 109.852 18.205C110.429 17.6701 110.718 16.9747 110.718 16.1188C110.718 15.2629 110.429 14.5676 109.852 14.0326C109.295 13.4763 108.568 13.1982 107.669 13.1982H103.465ZM125.843 32.1343C124.174 32.1343 122.698 31.7919 121.414 31.1073C120.152 30.4226 119.168 29.4704 118.462 28.2508C117.755 27.0098 117.402 25.5869 117.402 23.9821V17.1138C117.402 15.5304 117.755 14.1289 118.462 12.9093C119.168 11.6897 120.152 10.7482 121.414 10.0849C122.698 9.40024 124.174 9.05789 125.843 9.05789C127.534 9.05789 129.01 9.40024 130.273 10.0849C131.556 10.7482 132.551 11.6897 133.257 12.9093C133.963 14.1289 134.317 15.5304 134.317 17.1138V23.9821C134.317 25.5869 133.963 27.0098 133.257 28.2508C132.551 29.4918 131.556 30.4547 130.273 31.1393C129.01 31.8026 127.534 32.1343 125.843 32.1343ZM125.843 28.2508C127.02 28.2508 127.972 27.8763 128.7 27.1275C129.427 26.3786 129.791 25.3836 129.791 24.1426V17.0817C129.791 15.8407 129.427 14.8457 128.7 14.0968C127.994 13.3265 127.042 12.9414 125.843 12.9414C124.667 12.9414 123.714 13.3265 122.987 14.0968C122.281 14.8457 121.928 15.8407 121.928 17.0817V24.1426C121.928 25.3836 122.281 26.3786 122.987 27.1275C123.714 27.8763 124.667 28.2508 125.843 28.2508ZM145.136 32.1343C143.467 32.1343 141.99 31.7919 140.706 31.1073C139.444 30.4226 138.46 29.4704 137.754 28.2508C137.048 27.0098 136.695 25.5869 136.695 23.9821V17.1138C136.695 15.5304 137.048 14.1289 137.754 12.9093C138.46 11.6897 139.444 10.7482 140.706 10.0849C141.99 9.40024 143.467 9.05789 145.136 9.05789C146.826 9.05789 148.302 9.40024 149.565 10.0849C150.849 10.7482 151.843 11.6897 152.55 12.9093C153.256 14.1289 153.609 15.5304 153.609 17.1138V23.9821C153.609 25.5869 153.256 27.0098 152.55 28.2508C151.843 29.4918 150.849 30.4547 149.565 31.1393C148.302 31.8026 146.826 32.1343 145.136 32.1343ZM145.136 28.2508C146.312 28.2508 147.265 27.8763 147.992 27.1275C148.72 26.3786 149.083 25.3836 149.083 24.1426V17.0817C149.083 15.8407 148.72 14.8457 147.992 14.0968C147.286 13.3265 146.334 12.9414 145.136 12.9414C143.959 12.9414 143.007 13.3265 142.279 14.0968C141.573 14.8457 141.22 15.8407 141.22 17.0817V24.1426C141.22 25.3836 141.573 26.3786 142.279 27.1275C143.007 27.8763 143.959 28.2508 145.136 28.2508ZM172.002 12.813C172.002 12.92 171.959 13.0163 171.874 13.1019C171.81 13.1661 171.724 13.1982 171.617 13.1982H161.122C161.015 13.1982 160.962 13.2517 160.962 13.3586V18.3334C160.962 18.4404 161.015 18.4939 161.122 18.4939H168.022C168.129 18.4939 168.215 18.5367 168.279 18.6222C168.365 18.6864 168.408 18.772 168.408 18.879V21.9922C168.408 22.0992 168.365 22.1955 168.279 22.2811C168.215 22.3453 168.129 22.3774 168.022 22.3774H161.122C161.015 22.3774 160.962 22.4309 160.962 22.5378V31.3961C160.962 31.5031 160.919 31.5994 160.833 31.685C160.769 31.7492 160.683 31.7812 160.576 31.7812H156.821C156.714 31.7812 156.618 31.7492 156.532 31.685C156.468 31.5994 156.436 31.5031 156.436 31.3961V9.69979C156.436 9.59281 156.468 9.50722 156.532 9.44303C156.618 9.35744 156.714 9.31465 156.821 9.31465H171.617C171.724 9.31465 171.81 9.35744 171.874 9.44303C171.959 9.50722 172.002 9.59281 172.002 9.69979V12.813ZM187.529 32.1343C185.86 32.1343 184.383 31.7919 183.1 31.1073C181.837 30.4226 180.853 29.4704 180.147 28.2508C179.441 27.0098 179.088 25.5869 179.088 23.9821V17.1138C179.088 15.5304 179.441 14.1289 180.147 12.9093C180.853 11.6897 181.837 10.7482 183.1 10.0849C184.383 9.40024 185.86 9.05789 187.529 9.05789C189.219 9.05789 190.695 9.40024 191.958 10.0849C193.242 10.7482 194.237 11.6897 194.943 12.9093C195.649 14.1289 196.002 15.5304 196.002 17.1138V23.9821C196.002 25.5869 195.649 27.0098 194.943 28.2508C194.237 29.4918 193.242 30.4547 191.958 31.1393C190.695 31.8026 189.219 32.1343 187.529 32.1343ZM187.529 28.2508C188.706 28.2508 189.658 27.8763 190.385 27.1275C191.113 26.3786 191.476 25.3836 191.476 24.1426V17.0817C191.476 15.8407 191.113 14.8457 190.385 14.0968C189.679 13.3265 188.727 12.9414 187.529 12.9414C186.352 12.9414 185.4 13.3265 184.672 14.0968C183.966 14.8457 183.613 15.8407 183.613 17.0817V24.1426C183.613 25.3836 183.966 26.3786 184.672 27.1275C185.4 27.8763 186.352 28.2508 187.529 28.2508ZM214.395 12.813C214.395 12.92 214.353 13.0163 214.267 13.1019C214.203 13.1661 214.117 13.1982 214.01 13.1982H203.515C203.408 13.1982 203.355 13.2517 203.355 13.3586V18.3334C203.355 18.4404 203.408 18.4939 203.515 18.4939H210.416C210.523 18.4939 210.608 18.5367 210.672 18.6222C210.758 18.6864 210.801 18.772 210.801 18.879V21.9922C210.801 22.0992 210.758 22.1955 210.672 22.2811C210.608 22.3453 210.523 22.3774 210.416 22.3774H203.515C203.408 22.3774 203.355 22.4309 203.355 22.5378V31.3961C203.355 31.5031 203.312 31.5994 203.226 31.685C203.162 31.7492 203.077 31.7812 202.97 31.7812H199.214C199.107 31.7812 199.011 31.7492 198.926 31.685C198.861 31.5994 198.829 31.5031 198.829 31.3961V9.69979C198.829 9.59281 198.861 9.50722 198.926 9.44303C199.011 9.35744 199.107 9.31465 199.214 9.31465H214.01C214.117 9.31465 214.203 9.35744 214.267 9.44303C214.353 9.50722 214.395 9.59281 214.395 9.69979V12.813ZM87.9731 64.038C86.2614 64.038 84.7636 63.7706 83.4798 63.2356C82.196 62.6793 81.2011 61.8983 80.495 60.8927C79.8103 59.8656 79.4679 58.6781 79.4679 57.3301V56.624C79.4679 56.517 79.5 56.4315 79.5642 56.3673C79.6498 56.2817 79.7461 56.2389 79.8531 56.2389H83.5119C83.6189 56.2389 83.7045 56.2817 83.7687 56.3673C83.8543 56.4315 83.8971 56.517 83.8971 56.624V57.1055C83.8971 57.9613 84.2929 58.6888 85.0846 59.2879C85.8763 59.8656 86.9461 60.1545 88.2941 60.1545C89.4281 60.1545 90.2733 59.9191 90.8296 59.4484C91.3859 58.9563 91.6641 58.3572 91.6641 57.6511C91.6641 57.1376 91.4929 56.7096 91.1506 56.3673C90.8082 56.0035 90.3375 55.6933 89.7384 55.4365C89.1607 55.1584 88.2299 54.7839 86.9461 54.3132C85.5125 53.8211 84.2929 53.3182 83.2872 52.8047C82.303 52.2912 81.4685 51.5958 80.7838 50.7185C80.1205 49.8199 79.7889 48.7179 79.7889 47.4127C79.7889 46.1289 80.1205 45.0056 80.7838 44.0427C81.4471 43.0799 82.3672 42.3417 83.544 41.8282C84.7208 41.3147 86.0795 41.0579 87.6201 41.0579C89.2462 41.0579 90.6905 41.3467 91.9529 41.9245C93.2367 42.5022 94.2317 43.3152 94.9378 44.3637C95.6653 45.3907 96.029 46.589 96.029 47.9583V48.4398C96.029 48.5468 95.9862 48.643 95.9006 48.7286C95.8364 48.7928 95.7509 48.8249 95.6439 48.8249H91.9529C91.846 48.8249 91.7497 48.7928 91.6641 48.7286C91.5999 48.643 91.5678 48.5468 91.5678 48.4398V48.183C91.5678 47.2843 91.1934 46.5248 90.4445 45.9043C89.717 45.2624 88.7113 44.9414 87.4275 44.9414C86.4219 44.9414 85.6302 45.1554 85.0525 45.5833C84.4962 46.0112 84.218 46.5996 84.218 47.3485C84.218 47.8835 84.3785 48.3328 84.6994 48.6965C85.0418 49.0603 85.5339 49.3919 86.1758 49.6915C86.8391 49.9696 87.8555 50.3548 89.2248 50.8469C90.744 51.4032 91.9315 51.8953 92.7874 52.3233C93.6647 52.7512 94.4457 53.3931 95.1304 54.249C95.8364 55.0835 96.1895 56.1747 96.1895 57.5227C96.1895 59.534 95.4513 61.1281 93.9749 62.3049C92.4986 63.4603 90.498 64.038 87.9731 64.038ZM114.314 44.813C114.314 44.92 114.272 45.0163 114.186 45.1019C114.122 45.1661 114.036 45.1982 113.929 45.1982H103.402C103.295 45.1982 103.242 45.2517 103.242 45.3586V50.3334C103.242 50.4404 103.295 50.4939 103.402 50.4939H110.303C110.41 50.4939 110.495 50.5367 110.559 50.6222C110.645 50.6864 110.688 50.772 110.688 50.879V53.9922C110.688 54.0992 110.645 54.1955 110.559 54.2811C110.495 54.3453 110.41 54.3774 110.303 54.3774H103.402C103.295 54.3774 103.242 54.4309 103.242 54.5378V59.7373C103.242 59.8442 103.295 59.8977 103.402 59.8977H113.929C114.036 59.8977 114.122 59.9405 114.186 60.0261C114.272 60.0903 114.314 60.1759 114.314 60.2829V63.3961C114.314 63.5031 114.272 63.5994 114.186 63.685C114.122 63.7492 114.036 63.7812 113.929 63.7812H99.1014C98.9944 63.7812 98.8981 63.7492 98.8125 63.685C98.7483 63.5994 98.7162 63.5031 98.7162 63.3961V41.6998C98.7162 41.5928 98.7483 41.5072 98.8125 41.443C98.8981 41.3574 98.9944 41.3146 99.1014 41.3146H113.929C114.036 41.3146 114.122 41.3574 114.186 41.443C114.272 41.5072 114.314 41.5928 114.314 41.6998V44.813ZM124.713 64.038C123.044 64.038 121.578 63.7171 120.316 63.0752C119.053 62.4119 118.08 61.4918 117.395 60.315C116.71 59.1382 116.368 57.7795 116.368 56.2389V48.8249C116.368 47.2843 116.71 45.9257 117.395 44.7488C118.08 43.572 119.053 42.6626 120.316 42.0207C121.578 41.3788 123.044 41.0579 124.713 41.0579C126.36 41.0579 127.805 41.3681 129.046 41.9886C130.308 42.5878 131.282 43.4543 131.966 44.5884C132.672 45.701 133.025 46.9955 133.025 48.4719C133.025 48.6644 132.897 48.7821 132.64 48.8249L128.885 49.0496H128.821C128.607 49.0496 128.5 48.9319 128.5 48.6965C128.5 47.5625 128.147 46.6531 127.441 45.9684C126.756 45.2837 125.847 44.9414 124.713 44.9414C123.557 44.9414 122.627 45.2837 121.921 45.9684C121.236 46.6531 120.893 47.5625 120.893 48.6965V56.4315C120.893 57.5441 121.236 58.4428 121.921 59.1275C122.627 59.8122 123.557 60.1545 124.713 60.1545C125.847 60.1545 126.756 59.8122 127.441 59.1275C128.147 58.4428 128.5 57.5441 128.5 56.4315C128.5 56.1961 128.628 56.0784 128.885 56.0784L132.64 56.2389C132.747 56.2389 132.833 56.271 132.897 56.3352C132.983 56.3994 133.025 56.4743 133.025 56.5598C133.025 58.0362 132.672 59.3414 131.966 60.4755C131.282 61.6095 130.308 62.4867 129.046 63.1073C127.805 63.7278 126.36 64.038 124.713 64.038ZM143.854 64.038C142.207 64.038 140.752 63.7171 139.489 63.0752C138.248 62.4333 137.275 61.5346 136.569 60.3792C135.884 59.2023 135.542 57.8543 135.542 56.3352V41.6998C135.542 41.5928 135.574 41.5072 135.638 41.443C135.724 41.3574 135.82 41.3146 135.927 41.3146H139.682C139.789 41.3146 139.874 41.3574 139.939 41.443C140.024 41.5072 140.067 41.5928 140.067 41.6998V56.3673C140.067 57.5013 140.409 58.4214 141.094 59.1275C141.8 59.8122 142.72 60.1545 143.854 60.1545C144.988 60.1545 145.898 59.8122 146.582 59.1275C147.288 58.4214 147.642 57.5013 147.642 56.3673V41.6998C147.642 41.5928 147.674 41.5072 147.738 41.443C147.823 41.3574 147.92 41.3146 148.027 41.3146H151.782C151.889 41.3146 151.974 41.3574 152.039 41.443C152.124 41.5072 152.167 41.5928 152.167 41.6998V56.3352C152.167 57.8543 151.814 59.2023 151.108 60.3792C150.423 61.5346 149.45 62.4333 148.187 63.0752C146.946 63.7171 145.502 64.038 143.854 64.038ZM167.57 63.7812C167.356 63.7812 167.206 63.685 167.12 63.4924L163.108 54.602C163.066 54.5165 163.001 54.4737 162.916 54.4737H159.931C159.824 54.4737 159.77 54.5271 159.77 54.6341V63.3961C159.77 63.5031 159.728 63.5994 159.642 63.685C159.578 63.7492 159.492 63.7812 159.385 63.7812H155.63C155.523 63.7812 155.427 63.7492 155.341 63.685C155.277 63.5994 155.245 63.5031 155.245 63.3961V41.6998C155.245 41.5928 155.277 41.5072 155.341 41.443C155.427 41.3574 155.523 41.3146 155.63 41.3146H164.809C166.179 41.3146 167.377 41.5928 168.404 42.1491C169.453 42.7054 170.255 43.4971 170.811 44.5242C171.389 45.5512 171.678 46.7387 171.678 48.0867C171.678 49.5417 171.314 50.7934 170.587 51.8419C169.859 52.8689 168.843 53.5964 167.537 54.0243C167.431 54.0671 167.398 54.142 167.441 54.249L171.806 63.3319C171.849 63.4175 171.87 63.4817 171.87 63.5245C171.87 63.6957 171.753 63.7812 171.517 63.7812H167.57ZM159.931 45.1982C159.824 45.1982 159.77 45.2517 159.77 45.3586V50.8469C159.77 50.9539 159.824 51.0074 159.931 51.0074H164.135C165.034 51.0074 165.762 50.7399 166.318 50.205C166.896 49.6701 167.184 48.9747 167.184 48.1188C167.184 47.2629 166.896 46.5676 166.318 46.0326C165.762 45.4763 165.034 45.1982 164.135 45.1982H159.931ZM174.703 63.7812C174.596 63.7812 174.5 63.7492 174.414 63.685C174.35 63.5994 174.318 63.5031 174.318 63.3961V41.6998C174.318 41.5928 174.35 41.5072 174.414 41.443C174.5 41.3574 174.596 41.3146 174.703 41.3146H178.458C178.565 41.3146 178.651 41.3574 178.715 41.443C178.8 41.5072 178.843 41.5928 178.843 41.6998V63.3961C178.843 63.5031 178.8 63.5994 178.715 63.685C178.651 63.7492 178.565 63.7812 178.458 63.7812H174.703ZM197.609 41.3146C197.716 41.3146 197.802 41.3574 197.866 41.443C197.951 41.5072 197.994 41.5928 197.994 41.6998V44.8451C197.994 44.9521 197.951 45.0484 197.866 45.134C197.802 45.1982 197.716 45.2303 197.609 45.2303H191.864C191.757 45.2303 191.704 45.2837 191.704 45.3907V63.3961C191.704 63.5031 191.661 63.5994 191.575 63.685C191.511 63.7492 191.425 63.7812 191.318 63.7812H187.563C187.456 63.7812 187.36 63.7492 187.275 63.685C187.21 63.5994 187.178 63.5031 187.178 63.3961V45.3907C187.178 45.2837 187.125 45.2303 187.018 45.2303H181.433C181.326 45.2303 181.23 45.1982 181.144 45.134C181.08 45.0484 181.048 44.9521 181.048 44.8451V41.6998C181.048 41.5928 181.08 41.5072 181.144 41.443C181.23 41.3574 181.326 41.3146 181.433 41.3146H197.609ZM206.306 63.7492C206.199 63.7492 206.102 63.7171 206.017 63.6529C205.953 63.5673 205.921 63.471 205.921 63.364V55.2439C205.921 55.1584 205.91 55.0942 205.888 55.0514L199.277 41.764C199.234 41.6784 199.213 41.6142 199.213 41.5714C199.213 41.4002 199.33 41.3146 199.566 41.3146H203.61C203.824 41.3146 203.973 41.4109 204.059 41.6035L208.071 50.1408C208.135 50.2692 208.199 50.2692 208.263 50.1408L212.275 41.6035C212.361 41.4109 212.511 41.3146 212.725 41.3146H216.833C216.983 41.3146 217.079 41.3574 217.122 41.443C217.186 41.5072 217.186 41.6142 217.122 41.764L210.446 55.0514C210.425 55.0942 210.414 55.1584 210.414 55.2439V63.364C210.414 63.471 210.371 63.5673 210.285 63.6529C210.221 63.7171 210.136 63.7492 210.029 63.7492H206.306Z" fill="white"/>
<defs>
<filter id="filter0_b_224_533" x="-4.75589" y="-4.75564" width="78.2149" height="79.0738" filterUnits="userSpaceOnUse" color-interpolation-filters="sRGB">
<feFlood flood-opacity="0" result="BackgroundImageFix"/>
<feGaussianBlur in="BackgroundImageFix" stdDeviation="2.37794"/>
<feComposite in2="SourceAlpha" operator="in" result="effect1_backgroundBlur_224_533"/>
<feBlend mode="normal" in="SourceGraphic" in2="effect1_backgroundBlur_224_533" result="shape"/>
</filter>
<linearGradient id="paint0_linear_224_533" x1="34.3515" y1="0.000244141" x2="34.3515" y2="69.5621" gradientUnits="userSpaceOnUse">
<stop stop-color="#59FD3F"/>
<stop offset="0.5" stop-color="#3FF794"/>
<stop offset="1" stop-color="#20EFF6"/>
</linearGradient>
<linearGradient id="paint1_linear_224_533" x1="34.3515" y1="0.000244141" x2="34.3515" y2="69.5621" gradientUnits="userSpaceOnUse">
<stop stop-color="#59FD3F"/>
<stop offset="0.5" stop-color="#3FF794"/>
<stop offset="1" stop-color="#20EFF6"/>
</linearGradient>
<linearGradient id="paint2_linear_224_533" x1="34.4676" y1="12.8818" x2="34.4676" y2="56.6801" gradientUnits="userSpaceOnUse">
<stop stop-color="#59FD3F"/>
<stop offset="0.5" stop-color="#3FF794"/>
<stop offset="1" stop-color="#20EFF6"/>
</linearGradient>
<linearGradient id="paint3_linear_224_533" x1="34.4676" y1="12.8818" x2="34.4676" y2="56.6801" gradientUnits="userSpaceOnUse">
<stop stop-color="#59FD3F"/>
<stop offset="0.5" stop-color="#3FF794"/>
<stop offset="1" stop-color="#20EFF6"/>
</linearGradient>
<linearGradient id="paint4_linear_224_533" x1="34.4676" y1="12.8818" x2="34.4676" y2="56.6801" gradientUnits="userSpaceOnUse">
<stop stop-color="#59FD3F"/>
<stop offset="0.5" stop-color="#3FF794"/>
<stop offset="1" stop-color="#20EFF6"/>
</linearGradient>
<linearGradient id="paint5_linear_224_533" x1="34.4676" y1="12.8818" x2="34.4676" y2="56.6801" gradientUnits="userSpaceOnUse">
<stop stop-color="#59FD3F"/>
<stop offset="0.5" stop-color="#3FF794"/>
<stop offset="1" stop-color="#20EFF6"/>
</linearGradient>
<linearGradient id="paint6_linear_224_533" x1="34.4676" y1="12.8818" x2="34.4676" y2="56.6801" gradientUnits="userSpaceOnUse">
<stop stop-color="#59FD3F"/>
<stop offset="0.5" stop-color="#3FF794"/>
<stop offset="1" stop-color="#20EFF6"/>
</linearGradient>
<linearGradient id="paint7_linear_224_533" x1="34.4676" y1="12.8818" x2="34.4676" y2="56.6801" gradientUnits="userSpaceOnUse">
<stop stop-color="#59FD3F"/>
<stop offset="0.5" stop-color="#3FF794"/>
<stop offset="1" stop-color="#20EFF6"/>
</linearGradient>
<linearGradient id="paint8_linear_224_533" x1="34.4676" y1="12.8818" x2="34.4676" y2="56.6801" gradientUnits="userSpaceOnUse">
<stop stop-color="#59FD3F"/>
<stop offset="0.5" stop-color="#3FF794"/>
<stop offset="1" stop-color="#20EFF6"/>
</linearGradient>
<linearGradient id="paint9_linear_224_533" x1="34.4676" y1="12.8818" x2="34.4676" y2="56.6801" gradientUnits="userSpaceOnUse">
<stop stop-color="#59FD3F"/>
<stop offset="0.5" stop-color="#3FF794"/>
<stop offset="1" stop-color="#20EFF6"/>
</linearGradient>
<linearGradient id="paint10_linear_224_533" x1="34.4676" y1="12.8818" x2="34.4676" y2="56.6801" gradientUnits="userSpaceOnUse">
<stop stop-color="#59FD3F"/>
<stop offset="0.5" stop-color="#3FF794"/>
<stop offset="1" stop-color="#20EFF6"/>
</linearGradient>
<linearGradient id="paint11_linear_224_533" x1="34.4676" y1="12.8818" x2="34.4676" y2="56.6801" gradientUnits="userSpaceOnUse">
<stop stop-color="#59FD3F"/>
<stop offset="0.5" stop-color="#3FF794"/>
<stop offset="1" stop-color="#20EFF6"/>
</linearGradient>
<linearGradient id="paint12_linear_224_533" x1="34.4676" y1="12.8818" x2="34.4676" y2="56.6801" gradientUnits="userSpaceOnUse">
<stop stop-color="#59FD3F"/>
<stop offset="0.5" stop-color="#3FF794"/>
<stop offset="1" stop-color="#20EFF6"/>
</linearGradient>
<linearGradient id="paint13_linear_224_533" x1="34.4676" y1="12.8818" x2="34.4676" y2="56.6801" gradientUnits="userSpaceOnUse">
<stop stop-color="#59FD3F"/>
<stop offset="0.5" stop-color="#3FF794"/>
<stop offset="1" stop-color="#20EFF6"/>
</linearGradient>
<linearGradient id="paint14_linear_224_533" x1="34.4676" y1="12.8818" x2="34.4676" y2="56.6801" gradientUnits="userSpaceOnUse">
<stop stop-color="#59FD3F"/>
<stop offset="0.5" stop-color="#3FF794"/>
<stop offset="1" stop-color="#20EFF6"/>
</linearGradient>
<linearGradient id="paint15_linear_224_533" x1="34.4676" y1="12.8818" x2="34.4676" y2="56.6801" gradientUnits="userSpaceOnUse">
<stop stop-color="#59FD3F"/>
<stop offset="0.5" stop-color="#3FF794"/>
<stop offset="1" stop-color="#20EFF6"/>
</linearGradient>
<linearGradient id="paint16_linear_224_533" x1="34.4676" y1="12.8818" x2="34.4676" y2="56.6801" gradientUnits="userSpaceOnUse">
<stop stop-color="#59FD3F"/>
<stop offset="0.5" stop-color="#3FF794"/>
<stop offset="1" stop-color="#20EFF6"/>
</linearGradient>
</defs>
</svg>
