<svg width="218" height="31" viewBox="0 0 218 31" fill="none" xmlns="http://www.w3.org/2000/svg">
<path d="M13.5205 2.30454V10.7274H16.8896V3.98911H23.6277V0.620117H15.205C14.7583 0.620117 14.3298 0.797489 14.0139 1.11339C13.698 1.42942 13.5205 1.85781 13.5205 2.30454ZM43.8422 10.7274V2.30454C43.8422 1.85781 43.6648 1.42942 43.3489 1.11339C43.0328 0.797489 42.6045 0.620117 42.1577 0.620117H33.7349V3.98911H40.4732V10.7274H43.8422ZM40.4732 27.5727H33.7349V30.9418H42.1577C42.6045 30.9418 43.0328 30.7643 43.3489 30.4484C43.6648 30.1325 43.8422 29.704 43.8422 29.2573V20.8346H40.4732V27.5727ZM23.6277 30.9418V27.5727H16.8896V20.8346H13.5205V29.2573C13.5205 29.704 13.698 30.1325 14.0139 30.4484C14.3298 30.7643 14.7583 30.9418 15.205 30.9418H23.6277ZM11.8359 14.0963H45.5267V17.4655H11.8359V14.0963Z" fill="url(#paint0_linear_224_540)"/>
<path d="M66.1189 24.3163C63.6066 24.3163 61.6053 23.7792 60.1152 22.7048C58.6424 21.6133 57.8801 20.0539 57.8281 18.0266H62.4544C62.645 19.794 63.8579 20.6776 66.0929 20.6776C66.9246 20.6776 67.6264 20.5217 68.1982 20.2098C68.7872 19.8806 69.0818 19.3868 69.0818 18.7284C69.0818 18.2779 68.8998 17.9053 68.5361 17.6108C68.1721 17.2989 67.7996 17.0823 67.4184 16.961C67.0546 16.8398 66.3528 16.6492 65.3133 16.3892C65.2613 16.3718 65.2267 16.3632 65.2093 16.3632C65.192 16.3459 65.166 16.3373 65.1313 16.3373C65.0966 16.3199 65.062 16.3113 65.0273 16.3113C64.2303 16.1207 63.5719 15.9561 63.0521 15.8175C62.5496 15.6615 61.9692 15.4363 61.3107 15.1417C60.6697 14.8298 60.1585 14.492 59.7773 14.128C59.3962 13.7643 59.0669 13.2877 58.7897 12.6987C58.5298 12.0922 58.3999 11.4165 58.3999 10.6714C58.3999 8.76545 59.0757 7.33594 60.4271 6.38298C61.7959 5.43002 63.5805 4.95361 65.781 4.95361C67.8949 4.95361 69.6189 5.43866 70.9532 6.40902C72.3046 7.37924 73.0237 8.80011 73.1103 10.6714H68.614C68.5274 9.96093 68.2242 9.41519 67.7044 9.034C67.1845 8.63555 66.4915 8.43619 65.6251 8.43619C64.8281 8.43619 64.1783 8.60089 63.6759 8.93001C63.1907 9.24199 62.9482 9.65784 62.9482 10.1776C62.9482 10.7667 63.2427 11.1998 63.8318 11.477C64.4209 11.7369 65.5299 12.0489 67.1586 12.4127C68.1809 12.6554 69.0212 12.8979 69.6796 13.1404C70.338 13.3657 71.0051 13.6949 71.6809 14.128C72.3739 14.5613 72.885 15.1244 73.2142 15.8175C73.5608 16.4932 73.7341 17.3075 73.7341 18.2605C73.7341 20.1491 73.015 21.6306 71.5769 22.7048C70.1562 23.7792 68.3368 24.3163 66.1189 24.3163ZM79.9009 20.1838C80.3861 20.9115 81.0791 21.2754 81.9801 21.2754C82.881 21.2754 83.5742 20.9115 84.0592 20.1838C84.5618 19.4561 84.813 18.4771 84.813 17.247C84.813 16.0167 84.5618 15.0377 84.0592 14.31C83.5742 13.5649 82.881 13.1925 81.9801 13.1925C81.0791 13.1925 80.3861 13.5563 79.9009 14.284C79.4157 15.0118 79.1732 15.9994 79.1732 17.247C79.1732 18.4771 79.4157 19.4561 79.9009 20.1838ZM87.1261 22.289C85.8266 23.6232 84.1199 24.2902 82.006 24.2902C79.8922 24.2902 78.1768 23.6232 76.86 22.289C75.5432 20.9548 74.8848 19.2742 74.8848 17.247C74.8848 15.2197 75.5432 13.539 76.86 12.2049C78.1768 10.8706 79.8922 10.2036 82.006 10.2036C84.1199 10.2036 85.8266 10.8706 87.1261 12.2049C88.443 13.539 89.1013 15.2197 89.1013 17.247C89.1013 19.2742 88.443 20.9548 87.1261 22.289ZM90.5594 23.8744V5.29136H94.8478V23.8744H90.5594ZM96.9041 23.8744V10.5674H101.141V23.8744H96.9041ZM96.9041 8.72215V5.29136H101.141V8.72215H96.9041ZM108.397 24.2902C106.665 24.2902 105.261 23.6578 104.187 22.393C103.113 21.1281 102.575 19.404 102.575 17.2209C102.575 15.1417 103.113 13.4524 104.187 12.1528C105.278 10.8361 106.682 10.1776 108.397 10.1776C109.991 10.1776 111.23 10.81 112.114 12.0748H112.192V5.29136H116.428V23.8744H112.374V22.0811H112.322C111.455 23.5539 110.147 24.2902 108.397 24.2902ZM109.489 20.9375C110.355 20.9375 111.04 20.5997 111.542 19.9239C112.045 19.2309 112.296 18.3298 112.296 17.2209C112.296 16.06 112.062 15.1331 111.594 14.44C111.126 13.7296 110.442 13.3743 109.541 13.3743C108.709 13.3743 108.051 13.721 107.566 14.414C107.098 15.107 106.864 16.0253 106.864 17.1689C106.864 18.3298 107.098 19.2481 107.566 19.9239C108.033 20.5997 108.675 20.9375 109.489 20.9375ZM118.453 23.8744V10.5674H122.689V23.8744H118.453ZM118.453 8.72215V5.29136H122.689V8.72215H118.453ZM129.998 24.0303C128.646 24.0303 127.598 23.7618 126.853 23.2246C126.125 22.6701 125.761 21.7172 125.761 20.3658V13.2184H123.994V10.5674H125.761V6.35709H129.894V10.5674H132.311V13.2184H129.894V19.4561C129.894 19.9413 130.015 20.279 130.258 20.4696C130.518 20.6602 130.89 20.7556 131.375 20.7556C131.514 20.7556 131.696 20.7556 131.921 20.7556C132.146 20.7383 132.276 20.7296 132.311 20.7296V23.8225C131.826 23.961 131.055 24.0303 129.998 24.0303ZM134.656 28.2668V24.966H136.112C137.272 24.966 137.853 24.4982 137.853 23.5625C137.853 23.112 137.584 22.1937 137.047 20.8075L133.123 10.5674H137.593L139.386 16.2333L140.218 19.3002H140.27C140.513 18.122 140.772 17.0997 141.05 16.2333L142.791 10.5674H147.027L142.427 24.0563C141.89 25.6157 141.249 26.7074 140.504 27.3311C139.776 27.9549 138.745 28.2668 137.411 28.2668H134.656ZM155.638 24.3163C153.125 24.3163 151.125 23.7792 149.634 22.7048C148.162 21.6133 147.399 20.0539 147.347 18.0266H151.973C152.164 19.794 153.376 20.6776 155.613 20.6776C156.443 20.6776 157.145 20.5217 157.717 20.2098C158.306 19.8806 158.6 19.3868 158.6 18.7284C158.6 18.2779 158.419 17.9053 158.055 17.6108C157.691 17.2989 157.319 17.0823 156.937 16.961C156.573 16.8398 155.872 16.6492 154.832 16.3892C154.78 16.3718 154.745 16.3632 154.728 16.3632C154.712 16.3459 154.685 16.3373 154.651 16.3373C154.616 16.3199 154.581 16.3113 154.547 16.3113C153.75 16.1207 153.09 15.9561 152.571 15.8175C152.069 15.6615 151.488 15.4363 150.83 15.1417C150.189 14.8298 149.678 14.492 149.296 14.128C148.916 13.7643 148.586 13.2877 148.309 12.6987C148.048 12.0922 147.919 11.4165 147.919 10.6714C147.919 8.76545 148.595 7.33594 149.946 6.38298C151.315 5.43002 153.1 4.95361 155.3 4.95361C157.413 4.95361 159.138 5.43866 160.472 6.40902C161.824 7.37924 162.543 8.80011 162.629 10.6714H158.134C158.046 9.96093 157.744 9.41519 157.223 9.034C156.704 8.63555 156.01 8.43619 155.145 8.43619C154.347 8.43619 153.697 8.60089 153.195 8.93001C152.71 9.24199 152.467 9.65784 152.467 10.1776C152.467 10.7667 152.761 11.1998 153.351 11.477C153.94 11.7369 155.049 12.0489 156.678 12.4127C157.699 12.6554 158.54 12.8979 159.199 13.1404C159.857 13.3657 160.524 13.6949 161.199 14.128C161.893 14.5613 162.404 15.1244 162.733 15.8175C163.08 16.4932 163.252 17.3075 163.252 18.2605C163.252 20.1491 162.533 21.6306 161.096 22.7048C159.675 23.7792 157.856 24.3163 155.638 24.3163ZM171.474 24.2902C169.359 24.2902 167.652 23.6232 166.353 22.289C165.053 20.9548 164.404 19.2742 164.404 17.247C164.404 15.2197 165.045 13.539 166.326 12.2049C167.609 10.8706 169.29 10.2036 171.37 10.2036C173.137 10.2036 174.583 10.6714 175.709 11.6071C176.835 12.5427 177.493 13.7729 177.685 15.2976H173.605C173.309 13.9808 172.582 13.3224 171.421 13.3224C170.52 13.3224 169.836 13.6689 169.368 14.3619C168.918 15.0551 168.692 16.0167 168.692 17.247C168.692 18.4597 168.926 19.4128 169.394 20.1059C169.862 20.7816 170.537 21.1195 171.421 21.1195C172.773 21.1195 173.544 20.357 173.734 18.8323H177.789C177.736 20.4091 177.131 21.7172 175.969 22.7569C174.825 23.7792 173.327 24.2902 171.474 24.2902ZM183.316 24.2123C181.949 24.2123 180.848 23.8571 180.016 23.1467C179.185 22.4362 178.768 21.44 178.768 20.1578C178.768 18.8064 179.219 17.8274 180.12 17.2209C181.021 16.5971 182.268 16.1813 183.863 15.9734C185.163 15.8175 186.047 15.6441 186.513 15.4536C186.999 15.2457 187.242 14.9251 187.242 14.492C187.242 13.539 186.635 13.0625 185.422 13.0625C184.123 13.0625 183.404 13.6342 183.265 14.7778H179.367C179.418 13.461 179.955 12.3694 180.978 11.5031C182.018 10.6367 183.49 10.2036 185.396 10.2036C187.302 10.2036 188.74 10.5674 189.711 11.2952C190.836 12.1095 191.4 13.3743 191.4 15.0898V21.7951C191.4 22.8521 191.557 23.4846 191.868 23.6924V23.8744H187.761C187.588 23.6319 187.441 23.1381 187.32 22.393H187.267C186.419 23.6058 185.102 24.2123 183.316 24.2123ZM184.668 21.5093C185.465 21.5093 186.107 21.2927 186.591 20.8596C187.095 20.4091 187.345 19.8287 187.345 19.1182V17.5328C186.93 17.7408 186.202 17.9747 185.163 18.2346C184.313 18.4252 183.716 18.6504 183.369 18.9102C183.022 19.1702 182.85 19.5427 182.85 20.0279C182.85 21.0155 183.455 21.5093 184.668 21.5093ZM193.453 23.8744V10.5674H197.535V12.3867H197.611C198.634 10.914 200.003 10.1776 201.719 10.1776C203.157 10.1776 204.283 10.6455 205.098 11.581C205.928 12.4993 206.345 13.7122 206.345 15.2197V23.8744H202.109V16.0774C202.109 15.3497 201.926 14.7778 201.562 14.3619C201.216 13.9288 200.704 13.7122 200.029 13.7122C199.337 13.7122 198.773 13.9721 198.34 14.492C197.907 15.0118 197.69 15.6874 197.69 16.5191V23.8744H193.453Z" fill="white"/>
<defs>
<linearGradient id="paint0_linear_224_540" x1="15.0847" y1="2.78594" x2="43.782" y2="28.776" gradientUnits="userSpaceOnUse">
<stop stop-color="#52FF00"/>
<stop offset="1" stop-color="#00EEFD"/>
</linearGradient>
</defs>
</svg>
