<svg width="28" height="28" viewBox="0 0 28 28" fill="none" xmlns="http://www.w3.org/2000/svg">
<path fill-rule="evenodd" clip-rule="evenodd" d="M14 28C21.732 28 28 21.732 28 14C28 6.26801 21.732 0 14 0C6.26801 0 0 6.26801 0 14C0 21.732 6.26801 28 14 28ZM7.92299 20.276H10.4251V12.2182H7.92299V20.276ZM7.72363 9.65615C7.72363 10.4563 8.37261 11.119 9.17272 11.119C9.97256 11.119 10.6218 10.4563 10.6218 9.65615C10.6218 9.27182 10.4691 8.90323 10.1974 8.63147C9.92562 8.35971 9.55704 8.20703 9.17272 8.20703C8.7884 8.20703 8.41982 8.35971 8.14806 8.63147C7.8763 8.90323 7.72363 9.27182 7.72363 9.65615ZM17.2931 20.276H19.7899H19.7926V15.8497C19.7926 13.6837 19.3271 12.0161 16.7948 12.0161C15.5774 12.0161 14.7613 12.6842 14.4273 13.3173H14.3923V12.2182H11.9925V20.276H14.492V16.2861C14.492 15.2355 14.6913 14.2198 15.9922 14.2198C17.2743 14.2198 17.2931 15.4187 17.2931 16.3535V20.276Z" fill="white"/>
</svg>
