<svg width="58" height="55" viewBox="0 0 58 55" fill="none" xmlns="http://www.w3.org/2000/svg">
<path d="M52.8237 5.01828C52.6199 4.9214 52.416 4.8439 52.2325 4.74702C50.8462 4.14638 49.419 3.62323 47.9919 3.11947C47.6046 3.00321 47.2376 2.88696 46.8502 2.75133C45.5658 2.34444 44.2814 1.97631 42.9562 1.6663C42.4466 1.55004 41.9165 1.43379 41.3864 1.29816C40.2039 1.0269 38.9807 0.813774 37.7779 0.658769C37.1662 0.561891 36.5342 0.484386 35.943 0.42626C34.8013 0.29063 33.6392 0.193751 32.4771 0.116249C31.8247 0.0774977 31.1723 0.0387465 30.4792 0.0193709C29.8879 -4.73066e-06 29.3171 0 28.7055 0C28.155 0 27.6249 -4.73066e-06 27.0541 0.0193709C26.4017 0.0387465 25.7085 0.0581221 25.0561 0.116249C23.894 0.193751 22.7319 0.29063 21.5903 0.42626C20.9582 0.503762 20.3466 0.561891 19.7554 0.658769C18.5525 0.852525 17.3293 1.06565 16.1468 1.29816C15.6167 1.41442 15.1071 1.53067 14.577 1.6663C13.2722 1.97631 11.9674 2.34444 10.683 2.75133C10.2956 2.86758 9.92866 2.98384 9.52092 3.11947C8.07341 3.60386 6.66668 4.127 5.28034 4.72764C5.07647 4.82452 4.87259 4.90202 4.66872 4.9989C3.0785 5.69642 1.50867 6.47144 0 7.28522C0 8.95152 0.081557 10.5597 0.224269 12.1679C0.244656 12.4391 0.265036 12.6716 0.305811 12.9429C0.448523 14.3573 0.652404 15.7524 0.937828 17.128C1.01938 17.5543 1.12132 17.9612 1.18248 18.4068C1.42713 19.6275 1.77371 20.8288 2.09991 22.0107C2.24262 22.5338 2.42611 23.0957 2.6096 23.6189C2.95618 24.7039 3.34353 25.7502 3.77167 26.7964C4.01632 27.3971 4.28135 27.9977 4.526 28.579C5.89196 27.4552 7.33947 26.4089 8.84813 25.4789C10.316 24.5683 11.8655 23.7739 13.4761 23.0763C15.0459 22.3788 16.6769 21.7975 18.369 21.3519C19.5719 21.0225 20.8359 20.7319 22.0999 20.5188C22.5892 20.4413 23.0581 20.3831 23.5474 20.3056C25.1377 20.0925 26.7279 19.9762 28.3793 19.9762C28.4812 19.9762 28.5831 19.9762 28.6851 19.9762C28.8074 19.9762 28.9705 19.9762 29.0928 19.9762C30.7442 19.9956 32.3548 20.1119 33.9246 20.3444C34.4139 20.4219 34.9032 20.48 35.3925 20.5769C36.6565 20.79 37.9002 21.0807 39.103 21.41C40.7952 21.8944 42.4058 22.4757 43.996 23.1538C45.6066 23.8514 47.156 24.6651 48.6239 25.5758C50.1326 26.5058 51.5801 27.5521 52.9257 28.6953C53.2111 28.0946 53.4557 27.4746 53.7004 26.8546C54.1081 25.847 54.4751 24.7814 54.8421 23.7545C53.3946 22.6694 51.9063 21.6619 50.3161 20.7513C48.8074 19.86 47.2172 19.085 45.5658 18.4068C43.9756 17.7287 42.3242 17.1668 40.6321 16.6824C40.0205 16.508 39.3885 16.353 38.7564 16.198C37.6963 15.9655 36.6158 15.733 35.5148 15.578C34.577 15.4423 33.6188 15.3067 32.6606 15.2098C31.8859 15.1323 31.0704 15.0936 30.2549 15.0742C29.7248 15.0548 29.1947 15.0548 28.6443 15.0548C28.1346 15.0548 27.6657 15.0548 27.156 15.0742C26.3405 15.0936 25.5454 15.1517 24.7503 15.2098C23.7921 15.2873 22.8339 15.4036 21.8961 15.5392C20.8155 15.7136 19.7554 15.9267 18.6952 16.1592C18.0632 16.2949 17.4312 16.4693 16.7992 16.6436C15.1071 17.128 13.4557 17.7093 11.8655 18.3487C10.2141 19.0268 8.62387 19.8212 7.11521 20.6738C7.11521 20.6544 7.09482 20.5963 7.09482 20.5769C6.60553 18.9493 6.23855 17.283 5.93274 15.578C5.93274 15.5392 5.91234 15.5005 5.91234 15.4617C5.60653 13.7567 5.40266 12.0322 5.30072 10.2691C6.9521 9.47467 8.64426 8.77714 10.3772 8.15712C10.3976 8.15712 10.3976 8.13775 10.418 8.13775C12.1101 7.53711 13.8634 7.03334 15.6168 6.60707H15.6371C17.3293 6.20019 19.0418 5.87081 20.7951 5.61892C20.8155 5.61892 20.8767 5.61892 20.9175 5.59955C22.5892 5.36704 24.2814 5.19266 25.9939 5.11516C26.0347 5.11516 26.1163 5.11516 26.1774 5.11516C26.9929 5.09578 27.8288 5.0764 28.6443 5.0764C29.5006 5.0764 30.3976 5.09578 31.2131 5.11516C31.2539 5.11516 31.3354 5.11516 31.3966 5.11516C33.1091 5.21203 34.8013 5.34766 36.4731 5.59955C36.5138 5.59955 36.5546 5.59955 36.5954 5.61892C38.3487 5.89018 40.0612 6.21956 41.7534 6.62645H41.7738C43.5475 7.05271 45.2804 7.59523 46.9726 8.19588C46.9929 8.19588 47.0133 8.19588 47.0133 8.21525C48.7667 8.83527 50.4588 9.53279 52.0898 10.3272C53.8023 11.141 55.4741 12.0516 57.0847 13.0592C57.1051 12.7879 57.1255 12.4973 57.1663 12.2454C57.309 10.6566 57.3905 9.0484 57.3905 7.42085C56.0246 6.5102 54.4547 5.75455 52.8237 5.01828Z" fill="white"/>
<path d="M41.576 26.7912C40.0086 26.0617 38.3809 25.4538 36.693 25.0079C35.2461 24.6026 33.719 24.2986 32.2118 24.1365C31.9104 24.1163 31.609 24.0555 31.3478 24.0352C30.4435 23.9541 29.5392 23.9136 28.6149 23.9136C27.7106 23.9136 26.8466 23.9339 25.9825 24.0149C25.6811 24.0352 25.3997 24.0555 25.1184 24.1163C23.5711 24.2986 22.0841 24.5621 20.6172 24.9674C18.9292 25.4132 17.2815 26.0212 15.7342 26.7507C14.1668 27.4802 12.6798 28.3314 11.2531 29.3041C9.80625 30.3174 8.4398 31.4117 7.17383 32.6478C7.6762 33.6003 8.21876 34.5325 8.80151 35.4647C9.18331 36.0726 9.54501 36.6603 9.94691 37.248C10.5698 38.1802 11.1928 39.0718 11.8559 39.9635C12.2578 40.4904 12.6597 41.0173 13.0817 41.5239C13.8252 42.4561 14.6089 43.3275 15.3926 44.2191C15.7744 44.6447 16.1562 45.05 16.5581 45.4553C17.6231 44.0976 18.9292 42.9222 20.3962 41.9697C21.9635 40.9565 23.7319 40.2269 25.6208 39.8419C26.6255 39.6393 27.6302 39.5379 28.7154 39.5379C29.8206 39.5379 30.8655 39.6595 31.8702 39.8622C33.7591 40.2675 35.5074 40.997 37.0748 42.0305C35.849 43.287 34.5629 44.4623 33.2166 45.5972C33.1764 45.6377 33.1161 45.6782 33.0759 45.7188C32.9353 45.8403 32.7745 45.9619 32.6338 46.0633C32.3324 46.3064 32.031 46.5496 31.7095 46.7928C31.6894 46.8131 31.6492 46.8333 31.6291 46.8536C31.3478 47.0765 31.0664 47.2792 30.765 47.5021C30.6646 47.5831 30.544 47.6642 30.4435 47.725C30.2225 47.8871 30.0014 48.0492 29.7804 48.1911C29.4388 48.4343 29.0972 48.6572 28.7556 48.9004C27.4092 47.9884 26.083 47.0157 24.817 45.9822C22.9482 46.4686 21.3703 47.4615 19.8632 48.5761C20.0039 48.6977 19.9943 48.6977 20.155 48.8193C20.2153 48.8801 20.2756 48.9409 20.3761 49.022C21.5014 49.9744 22.6669 50.9066 23.8725 51.778C24.0735 51.9198 24.2744 52.0617 24.4754 52.2036C25.8619 53.2168 27.3087 54.1287 28.8158 55.0001C29.5392 54.5746 30.2627 54.1287 30.966 53.6829C31.6693 53.2371 32.3726 52.7507 33.0558 52.2644C33.2769 52.1225 33.4979 51.9401 33.719 51.778C34.8844 50.9269 36.0298 50.0149 37.1351 49.0625C37.3159 48.9004 37.4968 48.7382 37.6776 48.5761C37.8384 48.4343 37.9991 48.2924 38.1398 48.1506C39.0842 47.2994 40.0086 46.4078 40.9129 45.4958C41.3348 45.0703 41.7367 44.6447 42.1386 44.1989C42.9022 43.3478 43.6658 42.4561 44.3892 41.5847C44.8112 41.0578 45.2332 40.5107 45.6552 39.9432C28.3537 28.4124 16.96 38.0181 16.96 38.0181C16.9198 37.9775 16.8796 37.9167 16.8394 37.8762C15.8146 36.5792 14.85 35.2215 13.9257 33.8232C15.3122 32.8099 16.8394 31.9588 18.4269 31.2901C20.0746 30.5605 21.7827 30.0134 23.551 29.6486C24.9376 29.3649 26.3643 29.2028 27.8111 29.142C28.1125 29.142 28.4139 29.1217 28.7154 29.1217C29.057 29.1217 29.3785 29.1217 29.7201 29.142C31.1669 29.1825 32.5937 29.3649 33.9601 29.6689C35.7485 30.0539 37.4566 30.6011 39.0842 31.3306C40.6717 32.0399 42.1788 32.891 43.5654 33.884C44.9921 34.8972 46.2982 36.0523 47.4838 37.329C47.8857 36.7211 48.2876 36.0929 48.6493 35.4647C49.1919 34.5527 49.7143 33.6611 50.2167 32.7289C48.8905 31.4927 47.5441 30.3579 46.0973 29.3649C44.6505 28.3719 43.1434 27.5208 41.576 26.7912Z" fill="white"/>
</svg>
