<svg width="45" height="46" viewBox="0 0 45 46" fill="none" xmlns="http://www.w3.org/2000/svg">
<path fill-rule="evenodd" clip-rule="evenodd" d="M22.5 45.7148C34.9264 45.7148 45 35.6413 45 23.2148C45 10.7884 34.9264 0.714844 22.5 0.714844C10.0736 0.714844 0 10.7884 0 23.2148C0 35.6413 10.0736 45.7148 22.5 45.7148ZM12.7325 33.3013H16.7538V20.3513H12.7325V33.3013ZM12.4121 16.2337C12.4121 17.5196 13.4551 18.5847 14.741 18.5847C16.0264 18.5847 17.0699 17.5196 17.0699 16.2337C17.0699 15.616 16.8245 15.0237 16.3878 14.5869C15.951 14.1502 15.3587 13.9048 14.741 13.9048C14.1233 13.9048 13.531 14.1502 13.0942 14.5869C12.6575 15.0237 12.4121 15.616 12.4121 16.2337ZM27.7917 33.3013H31.8043H31.8087V26.1877C31.8087 22.7066 31.0605 20.0265 26.9907 20.0265C25.0342 20.0265 23.7227 21.1003 23.1859 22.1178H23.1296V20.3513H19.2728V33.3013H23.2898V26.8891C23.2898 25.2005 23.6102 23.5682 25.7009 23.5682C27.7614 23.5682 27.7917 25.4949 27.7917 26.9973V33.3013Z" fill="white"/>
</svg>
