<svg width="45" height="45" viewBox="0 0 45 45" fill="none" xmlns="http://www.w3.org/2000/svg">
<path fill-rule="evenodd" clip-rule="evenodd" d="M22.5 45C34.9264 45 45 34.9264 45 22.5C45 10.0736 34.9264 0 22.5 0C10.0736 0 0 10.0736 0 22.5C0 34.9264 10.0736 45 22.5 45ZM29.0076 31.4156L32.5201 14.9557C32.8318 13.5049 31.9953 12.937 31.0392 13.2932L10.3905 21.1979C8.98235 21.7452 9.00314 22.53 10.1514 22.8862L15.4305 24.5281L27.693 16.8558C28.2698 16.4737 28.7946 16.6854 28.3633 17.0674L18.4442 25.9737L18.0597 31.3898C18.6105 31.3898 18.8495 31.1523 19.1353 30.8683L21.7177 28.4004L27.0695 32.3192C28.0516 32.8665 28.7426 32.5773 29.0076 31.4156Z" fill="white"/>
</svg>
