<svg width="28" height="28" viewBox="0 0 28 28" fill="none" xmlns="http://www.w3.org/2000/svg">
<path fill-rule="evenodd" clip-rule="evenodd" d="M14 28C21.732 28 28 21.732 28 14C28 6.26801 21.732 0 14 0C6.26801 0 0 6.26801 0 14C0 21.732 6.26801 28 14 28ZM18.0489 19.5475L20.2345 9.30575C20.4284 8.40302 19.9079 8.04963 19.313 8.2713L6.46491 13.1898C5.58876 13.5303 5.60169 14.0186 6.31619 14.2403L9.60097 15.2619L17.231 10.488C17.5898 10.2503 17.9164 10.382 17.648 10.6197L11.4761 16.1614L11.2369 19.5314C11.5796 19.5314 11.7283 19.3836 11.9061 19.2069L13.513 17.6713L16.843 20.1097C17.454 20.4502 17.884 20.2703 18.0489 19.5475Z" fill="white"/>
</svg>
